<?xml version="1.0" encoding="utf-8"?>
<!-- Generator: Adobe Illustrator 27.4.1, SVG Export Plug-In . SVG Version: 6.00 Build 0)  -->
<svg version="1.1" id="Benco_Logo" xmlns="http://www.w3.org/2000/svg" xmlns:xlink="http://www.w3.org/1999/xlink" x="0px" y="0px"
	 viewBox="0 0 62.1 62.2" style="enable-background:new 0 0 62.1 62.2;" xml:space="preserve">
<style type="text/css">
	.st0{fill:#FAA74A;}
</style>
<g>
	<path class="st0" d="M28.6,17.2h-9.4v9.4c0,5.2,4.2,9.4,9.4,9.4H38v-9.4C38,21.4,33.8,17.2,28.6,17.2z M30.9,31.7c-1.7,0-3-1.4-3-3
		s1.3-3,3-3c1.7,0,3,1.4,3,3S32.5,31.7,30.9,31.7z"/>
	<path class="st0" d="M15.1,31.9c-5.8,1.8-10,7.3-9.9,13.7c0,2.1,0.9,4.1,2.3,5.8c3.1,3.6,6.9,6.4,11.3,8.3c0.2,0.1,0.5-0.1,0.5-0.3
		v-7.8c0-1.1,0.7-2.1,1.8-2.4c1.6-0.4,2.9,0.9,2.9,2.4v9.6c0,0.2,0.1,0.3,0.3,0.4c1.3,0.3,2.7,0.5,4.1,0.6c0.2,0,0.4-0.2,0.4-0.4
		V51.5c0-1.2,0.9-2.3,2.1-2.5c1.4-0.1,2.6,1,2.6,2.3v10.5c0,0.2,0.2,0.4,0.4,0.4c1.3-0.1,2.6-0.3,3.9-0.6c0.2,0,0.3-0.2,0.3-0.4
		V40.7h-9.4c-5.8,0-10.7-3.5-12.9-8.5C15.6,32,15.4,31.8,15.1,31.9L15.1,31.9z"/>
	<path class="st0" d="M31.7,0C14.2-0.4,0,13.7,0,31.1c0,2.7,0.3,5.3,1,7.7c0.1,0.3,0.6,0.4,0.7,0c2.1-5.7,6.9-10.2,12.9-11.7
		c0-0.2,0-0.4,0-0.6v-14h14.1c7.8,0,14.1,6.3,14.1,14.1v8.9c0,0.3,0.2,0.5,0.5,0.5c3.2-0.2,6-2,7.6-4.7H56
		c-1.9,5.5-7.1,9.4-13.3,9.4v18.8c0,0.3,0.3,0.5,0.5,0.3c11.6-5,19.6-16.7,18.9-30.2C61.4,13.4,47.9,0.3,31.7,0z"/>
</g>
</svg>
