<?xml version="1.0" encoding="utf-8"?>
<!-- Generator: Adobe Illustrator 27.4.1, SVG Export Plug-In . SVG Version: 6.00 Build 0)  -->
<svg version="1.1" id="Benco_Logo" xmlns="http://www.w3.org/2000/svg" xmlns:xlink="http://www.w3.org/1999/xlink" x="0px" y="0px"
	 viewBox="0 0 237.5 62.5" style="enable-background:new 0 0 237.5 62.5;" xml:space="preserve">
<style type="text/css">
	.st0{fill:#252424;}
</style>
<g>
	<path class="st0" d="M107,26.7c-1.5-2.3-3.2-4.2-5.4-5.5c-2.2-1.4-4.7-2.1-7.4-2.1c-2.3,0-4.3,0.5-6.1,1.4
		c-1.4,0.7-2.6,1.7-3.5,2.9v-9.7c0-0.4-0.3-0.7-0.7-0.7h-5c-0.4,0-0.7,0.3-0.7,0.7v34.9c0,0.4,0.3,0.7,0.7,0.7h4.3
		c0.3,0,0.6-0.2,0.7-0.5l0.8-3.1c0.9,1.1,2.1,2.1,3.5,2.8c1.8,1,3.9,1.4,6.2,1.4c2.7,0,5.2-0.7,7.4-2s3.9-3.2,5.2-5.5
		s1.9-4.9,1.9-7.8S108.3,29.1,107,26.7z M101,39.5c-0.8,1.5-1.8,2.6-3.2,3.4c-1.4,0.8-3,1.2-4.8,1.2s-3.3-0.4-4.7-1.2
		c-1.4-0.8-2.4-1.9-3.2-3.3c-0.8-1.4-1.1-3.1-1.1-5s0.4-3.5,1.1-4.9s1.8-2.6,3.2-3.4c1.4-0.8,3-1.2,4.7-1.2s3.3,0.4,4.7,1.2
		c1.4,0.8,2.4,1.9,3.2,3.4c0.8,1.5,1.2,3.1,1.2,4.9S101.8,38,101,39.5z"/>
	<path class="st0" d="M139.9,26.2c-1.3-2.2-2.9-3.9-5-5.2c-2.1-1.3-4.6-1.9-7.4-1.9s-5.5,0.7-7.9,2s-4.2,3.2-5.6,5.5
		s-2.1,4.9-2.1,7.9c0,2.9,0.7,5.6,2.1,7.9s3.3,4.2,5.7,5.5c2.4,1.3,5.1,2,8.1,2c2.4,0,4.6-0.4,6.7-1.3c1.9-0.8,3.5-1.9,4.9-3.3
		c0.2-0.3,0.2-0.7,0-1l-3.1-3c-0.3-0.3-0.7-0.2-1,0c-0.9,0.8-1.9,1.5-3,2c-1.4,0.6-2.9,0.8-4.5,0.8c-1.9,0-3.6-0.4-5.1-1.2
		s-2.6-1.9-3.4-3.4c-0.4-0.8-0.7-1.7-0.9-2.6h23c0.1-0.6,0.2-1.2,0.3-1.7s0.1-1,0.1-1.4C141.8,31,141.2,28.4,139.9,26.2z
		 M118.5,31.7c0.2-0.9,0.5-1.7,0.9-2.4c0.8-1.4,1.8-2.5,3.2-3.3c1.4-0.8,3-1.2,4.9-1.2c1.9,0,3.3,0.4,4.5,1c1.2,0.7,2.2,1.7,2.8,3
		c0.4,0.8,0.7,1.8,0.9,2.8L118.5,31.7z"/>
	<path class="st0" d="M173.6,30.9v17.8c0,0.4-0.3,0.7-0.7,0.7H168c-0.4,0-0.7-0.3-0.7-0.7V32.2c0-2.1-0.7-3.9-2-5.2
		c-1.3-1.3-3.1-2-5.2-2c-1.5,0-2.8,0.3-3.9,0.9c-1.1,0.6-2,1.5-2.6,2.6s-0.9,2.3-0.9,3.7v16.5c0,0.4-0.3,0.7-0.7,0.7h-5
		c-0.4,0-0.7-0.3-0.7-0.7V20.5c0-0.4,0.3-0.7,0.7-0.7h4.2c0.3,0,0.6,0.2,0.7,0.5l0.8,3c0.9-1.1,2-2,3.2-2.7c1.8-1,3.7-1.5,6-1.5
		s4.3,0.6,6.1,1.7c1.7,1.1,3.1,2.6,4.1,4.4C173.1,27,173.6,28.9,173.6,30.9z"/>
	<path class="st0" d="M204.4,44.3c0.2,0.2,0.2,0.6,0,0.9c-1.3,1.4-2.9,2.5-4.7,3.3c-2,0.9-4.2,1.3-6.5,1.3c-3,0-5.7-0.7-8.1-2
		c-2.4-1.3-4.3-3.2-5.7-5.5s-2.1-4.9-2.1-7.8c0-3,0.7-5.6,2.1-7.9c1.4-2.3,3.3-4.1,5.7-5.5c2.4-1.3,5.1-2,8.1-2
		c2.3,0,4.5,0.4,6.5,1.3c1.8,0.8,3.4,1.9,4.7,3.3c0.3,0.2,0.3,0.6,0,0.9l-3.2,3.1c-0.3,0.3-0.7,0.3-1,0c-0.8-0.8-1.7-1.4-2.8-1.9
		c-1.3-0.5-2.7-0.8-4.2-0.8c-1.8,0-3.4,0.4-4.8,1.2c-1.4,0.8-2.5,1.9-3.3,3.3s-1.2,3-1.2,4.9s0.4,3.5,1.2,4.9s1.9,2.6,3.3,3.4
		c1.4,0.8,3,1.2,4.8,1.2c1.5,0,2.9-0.3,4.2-0.8c1-0.4,2-1.1,2.8-1.9c0.3-0.2,0.7-0.3,1,0L204.4,44.3z"/>
	<path class="st0" d="M235.4,26.6c-1.4-2.3-3.3-4.1-5.7-5.5s-5-2-8-2s-5.6,0.7-8,2.1s-4.3,3.2-5.7,5.5s-2.1,4.9-2.1,7.8
		s0.7,5.5,2.1,7.8s3.3,4.2,5.7,5.6c2.4,1.4,5,2.1,8,2.1s5.6-0.7,8-2.1c2.4-1.4,4.3-3.2,5.7-5.6c1.4-2.3,2.1-4.9,2.1-7.8
		S236.8,28.9,235.4,26.6z M229.8,39.3c-0.8,1.5-1.9,2.6-3.3,3.4c-1.4,0.8-3,1.2-4.8,1.2s-3.4-0.4-4.8-1.2c-1.4-0.8-2.5-2-3.3-3.4
		s-1.2-3.1-1.2-4.9s0.4-3.4,1.2-4.8s1.9-2.5,3.3-3.3c1.4-0.8,3-1.2,4.8-1.2s3.4,0.4,4.8,1.2s2.5,1.9,3.3,3.3s1.2,3,1.2,4.8
		S230.6,37.9,229.8,39.3z"/>
</g>
<g>
	<path class="st0" d="M28.6,17.4h-9.4v9.4c0,5.2,4.2,9.4,9.4,9.4H38v-9.4C38,21.6,33.8,17.4,28.6,17.4z M30.9,31.9c-1.7,0-3-1.4-3-3
		s1.3-3,3-3c1.7,0,3,1.4,3,3S32.5,31.9,30.9,31.9z"/>
	<path class="st0" d="M38.1,40.9v20.5c0,0.2-0.1,0.4-0.3,0.4c-1.3,0.3-2.6,0.5-3.9,0.6c-0.2,0-0.4-0.2-0.4-0.4V51.5
		c0-1.3-1.2-2.4-2.6-2.3c-1.2,0.2-2.1,1.3-2.1,2.5V62c0,0.2-0.2,0.4-0.4,0.4c-1.4-0.1-2.8-0.3-4.1-0.6c-0.2-0.1-0.3-0.2-0.3-0.4
		v-9.6c0-1.5-1.3-2.8-2.9-2.4c-1.1,0.3-1.8,1.3-1.8,2.4v7.8c0,0.2-0.3,0.4-0.5,0.3c-4.4-1.9-8.2-4.7-11.3-8.3
		c-1.4-1.7-2.3-3.7-2.3-5.8c-0.1-6.4,4.1-11.9,9.9-13.7c0.3-0.1,0.5,0.1,0.7,0.3c2.2,5,7.1,8.5,12.9,8.5H38.1z"/>
	<path class="st0" d="M43.2,60c-0.2,0.2-0.5,0-0.5-0.3V40.9c6.2,0,11.4-3.9,13.3-9.4h-5.1c-1.6,2.7-4.4,4.5-7.6,4.7
		c-0.3,0-0.5-0.2-0.5-0.5v-8.9c0-7.8-6.3-14.1-14.1-14.1H14.6v14.6c-6,1.5-10.8,6-12.9,11.7c-0.1,0.4-0.6,0.3-0.7,0
		c-0.7-2.4-1-5-1-7.7C0,13.9,14.2-0.2,31.7,0.2c16.2,0.3,29.7,13.4,30.4,29.6C62.8,43.3,54.8,55,43.2,60z"/>
</g>
</svg>
