<?xml version="1.0" encoding="utf-8"?>
<!-- Generator: Adobe Illustrator 26.1.0, SVG Export Plug-In . SVG Version: 6.00 Build 0)  -->
<svg version="1.1" id="Benco_Logo" xmlns="http://www.w3.org/2000/svg" xmlns:xlink="http://www.w3.org/1999/xlink" x="0px" y="0px"
	 viewBox="0 0 237.5 62.5" style="enable-background:new 0 0 237.5 62.5;" xml:space="preserve">
<style type="text/css">
	.st0{fill:#49160A;}
	.st1{fill:#FAA74A;}
</style>
<g>
	<path class="st0" d="M101.6,21.2c-2.2-1.4-4.7-2.1-7.4-2.1c-2.3,0-4.3,0.5-6.1,1.4c-1.4,0.7-2.6,1.7-3.5,2.9v-9.7
		c0-0.4-0.3-0.7-0.7-0.7h-5c-0.4,0-0.7,0.3-0.7,0.7v34.9c0,0.4,0.3,0.7,0.7,0.7h4.3c0.3,0,0.6-0.2,0.7-0.5l0.8-3.1
		c0.9,1.1,2.1,2.1,3.5,2.8c1.8,1,3.9,1.4,6.2,1.4c2.7,0,5.2-0.7,7.4-2s3.9-3.2,5.2-5.5c1.3-2.3,1.9-4.9,1.9-7.8s-0.6-5.5-1.9-7.9
		C105.5,24.4,103.8,22.5,101.6,21.2L101.6,21.2z M101,39.5c-0.8,1.5-1.8,2.6-3.2,3.4s-3,1.2-4.8,1.2s-3.3-0.4-4.7-1.2
		c-1.4-0.8-2.4-1.9-3.2-3.3c-0.8-1.4-1.1-3.1-1.1-5s0.4-3.5,1.1-4.9s1.8-2.6,3.2-3.4c1.4-0.8,3-1.2,4.7-1.2s3.3,0.4,4.7,1.2
		c1.4,0.8,2.4,1.9,3.2,3.4s1.2,3.1,1.2,4.9S101.8,38,101,39.5L101,39.5z"/>
	<path class="st0" d="M134.9,21c-2.1-1.3-4.6-1.9-7.4-1.9s-5.5,0.7-7.9,2s-4.2,3.2-5.6,5.5s-2.1,4.9-2.1,7.9c0,2.9,0.7,5.6,2.1,7.9
		c1.4,2.3,3.3,4.2,5.7,5.5c2.4,1.3,5.1,2,8.1,2c2.4,0,4.6-0.4,6.7-1.3c1.9-0.8,3.5-1.9,4.9-3.3c0.2-0.3,0.2-0.7,0-1l-3.1-3
		c-0.3-0.3-0.7-0.2-1,0c-0.9,0.8-1.9,1.5-3,2c-1.4,0.6-2.9,0.8-4.5,0.8c-1.9,0-3.6-0.4-5.1-1.2c-1.5-0.8-2.6-1.9-3.4-3.4
		c-0.4-0.8-0.7-1.7-0.9-2.6h23c0.1-0.6,0.2-1.2,0.3-1.7c0.1-0.5,0.1-1,0.1-1.4c0-2.8-0.6-5.4-1.9-7.6S137,22.3,134.9,21L134.9,21z
		 M118.5,31.7c0.2-0.9,0.5-1.7,0.9-2.4c0.8-1.4,1.8-2.5,3.2-3.3s3-1.2,4.9-1.2c1.9,0,3.3,0.4,4.5,1c1.2,0.7,2.2,1.7,2.8,3
		c0.4,0.8,0.7,1.8,0.9,2.8L118.5,31.7L118.5,31.7z"/>
	<path class="st0" d="M168,20.8c-1.8-1.1-3.8-1.7-6.1-1.7s-4.2,0.5-6,1.5c-1.2,0.7-2.3,1.6-3.2,2.7l-0.8-3c-0.1-0.3-0.4-0.5-0.7-0.5
		H147c-0.4,0-0.7,0.3-0.7,0.7v28.2c0,0.4,0.3,0.7,0.7,0.7h5c0.4,0,0.7-0.3,0.7-0.7V32.2c0-1.4,0.3-2.6,0.9-3.7
		c0.6-1.1,1.5-2,2.6-2.6c1.1-0.6,2.4-0.9,3.9-0.9c2.1,0,3.9,0.7,5.2,2s2,3.1,2,5.2v16.5c0,0.4,0.3,0.7,0.7,0.7h4.9
		c0.4,0,0.7-0.3,0.7-0.7V30.9c0-2-0.5-3.9-1.5-5.7C171.1,23.4,169.7,21.9,168,20.8L168,20.8z"/>
	<path class="st0" d="M201.2,41.2c-0.3-0.3-0.7-0.2-1,0c-0.8,0.8-1.8,1.5-2.8,1.9c-1.3,0.5-2.7,0.8-4.2,0.8c-1.8,0-3.4-0.4-4.8-1.2
		s-2.5-2-3.3-3.4c-0.8-1.4-1.2-3-1.2-4.9s0.4-3.5,1.2-4.9s1.9-2.5,3.3-3.3c1.4-0.8,3-1.2,4.8-1.2c1.5,0,2.9,0.3,4.2,0.8
		c1.1,0.5,2,1.1,2.8,1.9c0.3,0.3,0.7,0.3,1,0l3.2-3.1c0.3-0.3,0.3-0.7,0-0.9c-1.3-1.4-2.9-2.5-4.7-3.3c-2-0.9-4.2-1.3-6.5-1.3
		c-3,0-5.7,0.7-8.1,2c-2.4,1.4-4.3,3.2-5.7,5.5s-2.1,4.9-2.1,7.9c0,2.9,0.7,5.5,2.1,7.8s3.3,4.2,5.7,5.5s5.1,2,8.1,2
		c2.3,0,4.5-0.4,6.5-1.3c1.8-0.8,3.4-1.9,4.7-3.3c0.2-0.3,0.2-0.7,0-0.9L201.2,41.2L201.2,41.2z"/>
	<path class="st0" d="M235.4,26.6c-1.4-2.3-3.3-4.1-5.7-5.5c-2.4-1.4-5-2-8-2s-5.6,0.7-8,2.1c-2.4,1.4-4.3,3.2-5.7,5.5
		c-1.4,2.3-2.1,4.9-2.1,7.8s0.7,5.5,2.1,7.8c1.4,2.3,3.3,4.2,5.7,5.6c2.4,1.4,5,2.1,8,2.1s5.6-0.7,8-2.1c2.4-1.4,4.3-3.2,5.7-5.6
		c1.4-2.3,2.1-4.9,2.1-7.8S236.8,28.9,235.4,26.6z M229.8,39.3c-0.8,1.5-1.9,2.6-3.3,3.4s-3,1.2-4.8,1.2s-3.4-0.4-4.8-1.2
		c-1.4-0.8-2.5-2-3.3-3.4c-0.8-1.4-1.2-3.1-1.2-4.9s0.4-3.4,1.2-4.8s1.9-2.5,3.3-3.3c1.4-0.8,3-1.2,4.8-1.2s3.4,0.4,4.8,1.2
		c1.4,0.8,2.5,1.9,3.3,3.3s1.2,3,1.2,4.8S230.6,37.9,229.8,39.3z"/>
</g>
<g>
	<path class="st1" d="M28.6,17.4h-9.4v9.4c0,5.2,4.2,9.4,9.4,9.4H38v-9.4C38,21.6,33.8,17.4,28.6,17.4z M30.9,31.9c-1.7,0-3-1.4-3-3
		s1.3-3,3-3c1.7,0,3,1.4,3,3S32.5,31.9,30.9,31.9z"/>
	<path class="st1" d="M15.1,32.1c-5.8,1.8-10,7.3-9.9,13.7c0,2.1,0.9,4.1,2.3,5.8c3.1,3.6,6.9,6.4,11.3,8.3c0.2,0.1,0.5-0.1,0.5-0.3
		v-7.8c0-1.1,0.7-2.1,1.8-2.4c1.6-0.4,2.9,0.9,2.9,2.4v9.6c0,0.2,0.1,0.3,0.3,0.4c1.3,0.3,2.7,0.5,4.1,0.6c0.2,0,0.4-0.2,0.4-0.4
		V51.7c0-1.2,0.9-2.3,2.1-2.5c1.4-0.1,2.6,1,2.6,2.3V62c0,0.2,0.2,0.4,0.4,0.4c1.3-0.1,2.6-0.3,3.9-0.6c0.2,0,0.3-0.2,0.3-0.4V40.9
		h-9.4c-5.8,0-10.7-3.5-12.9-8.5C15.6,32.2,15.4,32,15.1,32.1L15.1,32.1z"/>
	<path class="st1" d="M31.7,0.2C14.2-0.2,0,13.9,0,31.3C0,34,0.3,36.6,1,39c0.1,0.3,0.6,0.4,0.7,0c2.1-5.7,6.9-10.2,12.9-11.7
		c0-0.2,0-0.4,0-0.6V12.7h14.1c7.8,0,14.1,6.3,14.1,14.1v8.9c0,0.3,0.2,0.5,0.5,0.5c3.2-0.2,6-2,7.6-4.7H56
		c-1.9,5.5-7.1,9.4-13.3,9.4v18.8c0,0.3,0.3,0.5,0.5,0.3C54.8,55,62.8,43.3,62.1,29.8C61.4,13.6,47.9,0.5,31.7,0.2z"/>
</g>
</svg>
